<svg width="44" height="44" viewBox="0 0 44 44" fill="none" xmlns="http://www.w3.org/2000/svg">
<path d="M33 5.5C31.5413 5.5 30.1424 6.07946 29.1109 7.11091C28.0795 8.14236 27.5 9.54131 27.5 11V33C27.5 34.4587 28.0795 35.8576 29.1109 36.8891C30.1424 37.9205 31.5413 38.5 33 38.5C34.4587 38.5 35.8576 37.9205 36.8891 36.8891C37.9205 35.8576 38.5 34.4587 38.5 33C38.5 31.5413 37.9205 30.1424 36.8891 29.1109C35.8576 28.0795 34.4587 27.5 33 27.5H11C9.54131 27.5 8.14236 28.0795 7.11091 29.1109C6.07946 30.1424 5.5 31.5413 5.5 33C5.5 34.4587 6.07946 35.8576 7.11091 36.8891C8.14236 37.9205 9.54131 38.5 11 38.5C12.4587 38.5 13.8576 37.9205 14.8891 36.8891C15.9205 35.8576 16.5 34.4587 16.5 33V11C16.5 9.54131 15.9205 8.14236 14.8891 7.11091C13.8576 6.07946 12.4587 5.5 11 5.5C9.54131 5.5 8.14236 6.07946 7.11091 7.11091C6.07946 8.14236 5.5 9.54131 5.5 11C5.5 12.4587 6.07946 13.8576 7.11091 14.8891C8.14236 15.9205 9.54131 16.5 11 16.5H33C34.4587 16.5 35.8576 15.9205 36.8891 14.8891C37.9205 13.8576 38.5 12.4587 38.5 11C38.5 9.54131 37.9205 8.14236 36.8891 7.11091C35.8576 6.07946 34.4587 5.5 33 5.5Z" stroke="black" stroke-width="1.66667" stroke-linecap="round" stroke-linejoin="round"/>
</svg>
