<svg width="25" height="25" viewBox="0 0 25 25" fill="none" xmlns="http://www.w3.org/2000/svg">
<path fill-rule="evenodd" clip-rule="evenodd" d="M7.77539 1.11044C8.99727 1.05419 9.38685 1.04169 12.4993 1.04169C15.6118 1.04169 16.0014 1.05523 17.2223 1.11044C18.4431 1.16565 19.2764 1.36044 20.0056 1.64273C20.7691 1.93127 21.4618 2.38231 22.0348 2.96565C22.6181 3.53752 23.0681 4.22919 23.3556 4.99377C23.6389 5.72294 23.8327 6.55627 23.8889 7.77502C23.9452 8.99898 23.9577 9.38856 23.9577 12.5C23.9577 15.6125 23.9441 16.0021 23.8889 17.224C23.8337 18.4427 23.6389 19.2761 23.3556 20.0052C23.0681 20.7699 22.6173 21.4627 22.0348 22.0354C21.4618 22.6188 20.7691 23.0688 20.0056 23.3563C19.2764 23.6396 18.4431 23.8334 17.2243 23.8896C16.0014 23.9459 15.6118 23.9584 12.4993 23.9584C9.38685 23.9584 8.99727 23.9448 7.77539 23.8896C6.55664 23.8344 5.72331 23.6396 4.99414 23.3563C4.22947 23.0687 3.53666 22.618 2.96393 22.0354C2.38099 21.4632 1.92989 20.7707 1.64206 20.0063C1.35977 19.2771 1.16602 18.4438 1.10977 17.225C1.05352 16.0011 1.04102 15.6115 1.04102 12.5C1.04102 9.38752 1.05456 8.99794 1.10977 7.7771C1.16497 6.55627 1.35977 5.72294 1.64206 4.99377C1.93031 4.22927 2.38176 3.5368 2.96497 2.9646C3.53689 2.38179 4.22901 1.93069 4.9931 1.64273C5.72227 1.36044 6.5556 1.16669 7.77435 1.11044H7.77539ZM17.1296 3.17294C15.9212 3.11773 15.5587 3.10627 12.4993 3.10627C9.43997 3.10627 9.07747 3.11773 7.86914 3.17294C6.75143 3.22398 6.14518 3.41044 5.74102 3.56773C5.20664 3.77606 4.82435 4.02294 4.42331 4.42398C4.04315 4.79382 3.75058 5.24406 3.56706 5.74169C3.40977 6.14585 3.22331 6.7521 3.17227 7.86981C3.11706 9.07815 3.1056 9.44065 3.1056 12.5C3.1056 15.5594 3.11706 15.9219 3.17227 17.1302C3.22331 18.2479 3.40977 18.8542 3.56706 19.2584C3.75039 19.7552 4.0431 20.2063 4.42331 20.5761C4.7931 20.9563 5.24414 21.249 5.74102 21.4323C6.14518 21.5896 6.75143 21.7761 7.86914 21.8271C9.07747 21.8823 9.43893 21.8938 12.4993 21.8938C15.5598 21.8938 15.9212 21.8823 17.1296 21.8271C18.2473 21.7761 18.8535 21.5896 19.2577 21.4323C19.7921 21.224 20.1743 20.9771 20.5754 20.5761C20.9556 20.2063 21.2483 19.7552 21.4316 19.2584C21.5889 18.8542 21.7754 18.2479 21.8264 17.1302C21.8816 15.9219 21.8931 15.5594 21.8931 12.5C21.8931 9.44065 21.8816 9.07815 21.8264 7.86981C21.7754 6.7521 21.5889 6.14585 21.4316 5.74169C21.2233 5.20731 20.9764 4.82502 20.5754 4.42398C20.2055 4.04384 19.7553 3.75128 19.2577 3.56773C18.8535 3.41044 18.2473 3.22398 17.1296 3.17294ZM11.0358 16.0323C11.8532 16.3726 12.7633 16.4185 13.6107 16.1622C14.4582 15.906 15.1904 15.3635 15.6823 14.6274C16.1742 13.8912 16.3952 13.0072 16.3077 12.1262C16.2202 11.2452 15.8296 10.4219 15.2025 9.7969C14.8027 9.39739 14.3194 9.09149 13.7872 8.90121C13.255 8.71094 12.6873 8.64102 12.1249 8.69649C11.5624 8.75197 11.0193 8.93145 10.5346 9.22203C10.0498 9.51261 9.63554 9.90705 9.32154 10.3769C9.00754 10.8469 8.80163 11.3805 8.71864 11.9396C8.63564 12.4986 8.67763 13.0691 8.84158 13.6099C9.00552 14.1508 9.28735 14.6486 9.66677 15.0674C10.0462 15.4863 10.5137 15.8158 11.0358 16.0323ZM8.33476 8.33544C8.88167 7.78854 9.53093 7.35471 10.2455 7.05873C10.9601 6.76275 11.7259 6.61041 12.4993 6.61041C13.2728 6.61041 14.0386 6.76275 14.7532 7.05873C15.4678 7.35471 16.117 7.78854 16.6639 8.33544C17.2108 8.88234 17.6447 9.5316 17.9406 10.2462C18.2366 10.9607 18.389 11.7266 18.389 12.5C18.389 13.2735 18.2366 14.0393 17.9406 14.7539C17.6447 15.4684 17.2108 16.1177 16.6639 16.6646C15.5594 17.7691 14.0614 18.3896 12.4993 18.3896C10.9373 18.3896 9.43928 17.7691 8.33476 16.6646C7.23025 15.5601 6.60974 14.062 6.60974 12.5C6.60974 10.938 7.23025 9.43995 8.33476 8.33544ZM19.6952 7.48752C19.8307 7.35968 19.9392 7.20594 20.0142 7.03541C20.0893 6.86488 20.1294 6.68103 20.1321 6.49474C20.1348 6.30845 20.1001 6.12351 20.0301 5.95086C19.96 5.77822 19.856 5.62139 19.7243 5.48964C19.5926 5.3579 19.4357 5.25393 19.2631 5.18389C19.0904 5.11385 18.9055 5.07916 18.7192 5.08188C18.5329 5.08459 18.3491 5.12466 18.1785 5.1997C18.008 5.27475 17.8543 5.38324 17.7264 5.51877C17.4778 5.78234 17.3417 6.13244 17.347 6.49474C17.3522 6.85704 17.4985 7.20302 17.7547 7.45923C18.0109 7.71544 18.3569 7.86172 18.7192 7.867C19.0815 7.87228 19.4316 7.73616 19.6952 7.48752Z" fill="black" fill-opacity="0.59"/>
</svg>
